<?xml version="1.0" encoding="iso-8859-1"?>

<!DOCTYPE svg PUBLIC "-//W3C//DTD SVG 1.1//EN" "http://www.w3.org/Graphics/SVG/1.1/DTD/svg11.dtd">
<!-- Uploaded to: SVG Repo, www.svgrepo.com, Generator: SVG Repo Mixer Tools -->
<svg version="1.1" id="_x36_" xmlns="http://www.w3.org/2000/svg" xmlns:xlink="http://www.w3.org/1999/xlink" 
	 viewBox="0 0 512 512"  xml:space="preserve">
<g>
	<g>
		<g>
			<path style="fill:#7B8750;" d="M495.682,82.053c-28.532,24.579-34.497,47.793-28.46,63.82c1.437,3.953,2.012,6.684,1.941,8.984
				c-0.288,8.912-9.99,11.212-9.99,53.183c0,6.396-16.53-2.012-36.078-14.302c-28.46-17.824-63.389-43.697-63.389-43.697
				l-8.552-10.133L236.665,3.644l-0.072-0.072h216.542c9.99,0,18.686,1.366,26.088,3.737c18.327,5.893,28.676,18.183,31.766,31.766
				C514.44,54.024,508.978,70.554,495.682,82.053z"/>
			<path style="fill:#7A9861;" d="M487.274,247.137c0,63.532-24.364,121.315-64.179,164.724c-2.803,3.019-5.678,5.965-8.552,8.84
				c-2.947,2.947-5.965,5.75-9.056,8.481c-3.09,2.731-6.181,5.39-9.415,7.978c-6.396,5.175-13.08,10.062-20.052,14.518
				c-6.899,4.528-14.086,8.696-21.489,12.433c-5.534,2.875-11.212,5.534-17.033,7.906c-3.809,1.581-7.762,3.09-11.715,4.528
				c-3.881,1.366-7.834,2.659-11.786,3.881c-4.097,1.294-8.265,2.372-12.433,3.378c-2.012,0.503-4.025,1.006-6.037,1.437
				c-4.24,0.934-8.481,1.725-12.793,2.372c-1.653,0.288-3.306,0.575-4.959,0.791c-1.006,0.144-2.012,0.287-3.09,0.431
				c-3.522,0.431-7.115,0.79-10.709,1.078c-2.372,0.216-4.743,0.359-7.115,0.503c-1.725,0.072-3.45,0.144-5.246,0.216
				c-2.659,0.072-5.318,0.144-7.977,0.144c-6.899,0-13.655-0.287-20.411-0.862c-2.228-0.144-4.456-0.359-6.684-0.647
				c-8.912-0.934-17.68-2.444-26.232-4.384c-2.012-0.431-4.025-0.934-6.037-1.437c-4.384-1.078-8.768-2.3-13.08-3.594
				c-4.096-1.366-8.193-2.731-12.218-4.24c-2.012-0.719-4.025-1.509-6.037-2.3c-6.037-2.372-11.93-5.031-17.68-7.978
				c-9.631-4.671-18.902-10.133-27.67-16.099c-0.072-0.072-0.072-0.072-0.144-0.072c-1.222-0.79-2.444-1.581-3.593-2.444
				c-2.012-1.437-4.025-2.875-5.965-4.312c-0.216-0.216-0.431-0.431-0.719-0.575c-1.653-1.294-3.378-2.587-5.031-3.953
				c-1.653-1.294-3.306-2.659-4.959-4.025c-1.581-1.365-3.234-2.731-4.815-4.168c-1.581-1.366-3.162-2.803-4.672-4.24
				c-1.365-1.222-2.659-2.516-4.025-3.809c-1.725-1.653-3.45-3.378-5.103-5.103c-1.509-1.581-2.947-3.09-4.384-4.672
				c-1.437-1.581-2.875-3.162-4.24-4.743c-5.534-6.325-10.708-12.937-15.524-19.836C16.458,347.61,0,299.314,0,247.137
				C0,114.897,105.36,7.381,236.665,3.644c2.3-0.072,4.672-0.072,6.971-0.072c101.839,0,189.16,62.526,225.526,151.285
				C480.805,183.317,487.274,214.436,487.274,247.137z"/>
		</g>
		<rect x="59.956" y="139.887" style="fill:#AFAFAF;" width="363.133" height="89.885"/>
		<path style="fill:#8A9F6B;" d="M423.089,287.983H59.956v119.118c44.659,51.241,110.355,83.667,183.671,83.667
			c71.027,0,134.923-30.404,179.462-78.895V287.983z"/>
		<rect x="59.956" y="211.791" style="fill:#3E3A39;" width="363.133" height="89.885"/>
		<g>
			<path style="fill:#FFFFFF;" d="M379.377,255.796c0,20.115-16.304,36.405-36.405,36.405s-36.405-16.29-36.405-36.405
				c0-20.107,16.304-36.397,36.405-36.397S379.377,235.689,379.377,255.796z"/>
			<path style="fill:#595758;" d="M360.28,255.796c0,9.559-7.755,17.308-17.307,17.308c-9.559,0-17.3-7.748-17.3-17.308
				c0-9.552,7.741-17.3,17.3-17.3C352.525,238.496,360.28,246.244,360.28,255.796z"/>
		</g>
		<g>
			<path style="fill:#FFFFFF;" d="M176.242,255.796c0,20.115-16.304,36.405-36.401,36.405c-20.105,0-36.409-16.29-36.409-36.405
				c0-20.107,16.304-36.397,36.409-36.397C159.937,219.399,176.242,235.689,176.242,255.796z"/>
			<path style="fill:#595758;" d="M157.137,255.796c0,9.559-7.742,17.308-17.297,17.308c-9.556,0-17.308-7.748-17.308-17.308
				c0-9.552,7.752-17.3,17.308-17.3C149.395,238.496,157.137,246.244,157.137,255.796z"/>
		</g>
		<g>
			<path style="fill:#A2A2A4;" d="M251.248,167.195c6.76,6.759,6.76,17.714,0,24.466c-6.751,6.759-17.707,6.759-24.466,0
				L251.248,167.195z"/>
			<path style="fill:#C2C1C1;" d="M226.781,191.662c-6.751-6.752-6.751-17.708,0-24.466c6.759-6.759,17.715-6.759,24.466,0
				L226.781,191.662z"/>
		</g>
		<g>
			<path style="fill:#A2A2A4;" d="M343.738,167.195c6.751,6.759,6.751,17.714,0,24.466c-6.759,6.759-17.715,6.759-24.474,0
				L343.738,167.195z"/>
			<path style="fill:#C2C1C1;" d="M319.264,191.662c-6.752-6.752-6.752-17.708,0-24.466c6.759-6.759,17.714-6.759,24.474,0
				L319.264,191.662z"/>
		</g>
		<g>
			<path style="fill:#A2A2A4;" d="M158.766,167.195c6.759,6.759,6.759,17.714,0,24.466c-6.752,6.759-17.715,6.759-24.47,0
				L158.766,167.195z"/>
			<path style="fill:#C2C1C1;" d="M134.296,191.662c-6.756-6.752-6.756-17.708,0-24.466c6.755-6.759,17.718-6.759,24.47,0
				L134.296,191.662z"/>
		</g>
	</g>
	<path style="opacity:0.19;fill:#3E3A39;" d="M453.163,3.538c-66.746,0-142.02-7.692-212.688-0.393v487.237
		c64.149,0.568,127.645-23.961,174.283-69.883c65.609-64.759,89.254-163.741,59.741-251.177
		c-17.947-53.165-11.595-52.877,24.705-94.42C527.79,42.189,487.568,3.538,453.163,3.538z"/>
</g>
</svg>